<?xml version="1.0" encoding="UTF-8"?>
<svg data-bbox="49.84 41.653 79.584 131.886" viewBox="0 0 179 210" xmlns="http://www.w3.org/2000/svg" data-type="color">
    <g>
        <path d="M109.5 74.8V78c0 1.2-.6 1.9-1.7 2.3-12.2 4.2-24.5 4.2-36.7 0-1.1-.4-1.7-1.1-1.6-2.3v-3.4c-1.8 1.5-3.4 2.7-4.8 4.1-14.9 14.3-14.7 37.9.5 52 4.7 4.3 7.9 9.3 9 15.6.1.6.2 1.3.3 2h31.1c2.3 0 2.8.5 2.8 2.8-.1 3.4.2 6.8-.3 10.1-1 7-7.3 12.2-14.3 12.3-3.5 0-7.1.2-10.5-.3-7-.9-12.2-6.9-12.5-13.9-.1-3.7 0-7.4-.2-11.1-.4-5.5-2.9-10.1-7-13.8C57.3 128.8 53 122 51 113.9c-4.1-16.4 2.9-33.9 17.3-43 1-.6 1.3-1.3 1.3-2.4-.1-1.4-.1-2.8 0-4.2.1-.9-.2-1.4-1.2-1.8L57.9 58c-.9-.4-1.7-.9-1.7-2s.7-1.6 1.7-2c4.9-2.1 9.7-4.3 14.6-6.3.6-.3 1.6-.4 2.2-.1.5.2 1 1.1 1 1.6-.1.7-.7 1.5-1.2 1.8-2.4 1-4.8 2-7.1 3-1.4.6-2.8 1.2-4.4 1.9 2.7 1.1 5.1 2.2 7.6 3.3l13.8 6c3.3 1.4 6.6 1.6 10 .2 7-3 14.1-6.1 21.1-9.1.2-.1.3-.2.6-.3-1.6-.7-3.2-1.4-4.7-2.1-5.4-2.3-10.8-4.6-16.1-7-3.8-1.7-7.5-1.7-11.2 0-.4.2-.9.4-1.3.5-1.1.3-1.9-.1-2.3-1.1-.4-1-.1-1.9.9-2.4 4.7-2.4 9.5-3.1 14.5-1 8.5 3.6 17 7.4 25.6 11.1 1.3.5 1.7 1.4 1.7 2.7v25c0 .8.2 1.6.6 2.3 9.6 16.1 6.7 36.8-7.1 49.5-2.6 2.4-5 5.1-6.4 8.4-.5 1.2-1.6 1.6-2.6 1.1s-1.3-1.5-.8-2.7c1.5-3.5 3.8-6.5 6.7-9 6-5.4 10-11.9 11.3-19.9 2.5-14.8-2.3-26.8-14.2-36-.1-.1-.3-.2-.4-.3-.4-.2-.4-.2-.8-.3zM73.4 64.7v11.1c0 .9.2 1.3 1.1 1.5 10 3 20.1 3 30.1 0 .8-.2 1.1-.6 1.1-1.4v-10c0-.3-.1-.6-.1-1.1-3 1.3-5.9 2.5-8.8 3.8-4.8 2.2-9.6 2.2-14.4 0-3-1.4-5.9-2.6-9-3.9zm45.5 12.4V58.9c-3.1 1.3-6 2.6-8.9 3.9-.2.1-.5.5-.5.8v5.8c0 .3.2.7.5.9 3 2.3 6 4.6 8.9 6.8zm-44.4 82.1c.2.9.2 1.7.5 2.4.1.3.6.7 1 .7h27c.3 0 .8-.3.9-.6.3-.8.4-1.6.6-2.6-10.1.1-19.9.1-30 .1zm.1-4.1h29.8v-3H74.6v3zm26.6 11.2H77.8c1.7 1.7 3.5 2.9 5.6 3 4 .2 8.1.2 12.2 0 2.1-.1 3.9-1.3 5.6-3z" fill="#ffffff" data-color="1"/>
        <path d="M89.9 88.2c3.7-2.4 9.1-1.8 13.5 1.7 2.8 2.2 4.6 5.1 5.2 8.7.1.4.3.9.6 1.2 2.4 1.8 3.7 4.3 4.1 7.2.5 4.1.2 8-2.7 11.3-1 1.1-1.5 2.1-1.6 3.6-.1 1.8-1.2 3.2-2.7 4.4-.3.3-.7.6-.8 1-1.4 4.8-3.8 6.7-8.8 6.6h-.8c-.2.7-.3 1.4-.5 2.1-.6 2.2-2.9 3.5-5.1 2.8-.4-.1-.9-.2-1.3-.1-2.7.8-4.8-.4-5.5-3.1-.1-.5-.2-1-.4-1.5 0 0-.1-.1-.1-.2-.8 0-1.6 0-2.5-.1-3.7-.3-6.2-2.6-7-6.1-.1-.5-.5-1.1-.9-1.4-1.8-1.5-2.8-3.3-2.8-5.7 0-.4-.1-1-.4-1.2-2.2-1.9-3.3-4.3-3.7-7.1-.4-3.4-.3-6.7 1.6-9.7.3-.5.6-1.1 1.1-1.4 1.6-1.1 2-2.7 2.6-4.5 2-6.4 7.9-9.9 14.1-9.9 1.5 0 3 .9 4.8 1.4zm-2.4 23.7V93.2c0-1.7-1.4-2.7-3.1-2.5-2.4.2-4.6.9-6.5 2.5-2.8 2.4-4.3 5.3-3.6 9.1.4 1.9 1.2 3.6 2.6 4.9 1 1 1.1 2.1.3 2.9-.8.9-2.1.9-3-.2-1.1-1.4-2-2.9-3-4.4-.2-.3-.3-.6-.4-1-2.1 3.1-1.9 8.6.3 11.3.4.5 1 1 1.5 1.3 1.2.6 1.5 1.4 1.2 2.7-.5 1.9 0 3 1.8 3.9 1 .5 1.4 1.2 1.5 2.3.2 2.9 1.6 4.1 4.5 4.1.7 0 1.4-.1 2-.2 1.8-.3 2.5.2 2.9 2l.6 2.7h.2V116c-1.7.4-2.3 1.7-2.8 3-.5 1.4-1.4 2-2.4 1.7-1.2-.3-1.6-1.4-1.2-2.8 1-3.4 3.1-5.4 6.6-6zm4 22.6h.2c.1-.6.2-1.1.4-1.7.6-3.1.8-3.2 3.9-2.9.2 0 .4 0 .6.1 3.4.2 4.8-1 5.2-4.4.1-.7.6-1.5 1.2-1.9 2-1.2 2.5-2 1.9-4.3-.2-1.1.1-1.9 1-2.4 1.5-.7 2.4-2 2.9-3.5.9-2.5.9-5 .1-7.6-.2-.6-.5-1.1-.9-1.9-.2.6-.3 1-.5 1.3-1 1.5-1.9 3-3.1 4.4-.9 1.1-2.1 1-2.9.1-.8-.8-.7-1.9.2-2.9l.5-.5c1.8-2.1 2.7-4.5 2.3-7.2-.7-4.5-4.1-7.7-9.2-8.6-2.9-.5-4.1.5-4.1 3.4v17.8c3.5.6 5.6 2.6 6.6 5.8.5 1.5 0 2.6-1.2 2.9-1.1.3-1.9-.3-2.5-1.8-.3-.7-.7-1.5-1.2-2.1-.3-.4-.9-.6-1.6-1 .2 6.6.2 12.8.2 18.9z" fill="#ffffff" data-color="1"/>
    </g>
</svg>
