<?xml version="1.0" encoding="UTF-8"?>
<svg data-bbox="27.881 37.4 123.238 125.656" viewBox="0 0 179 210" xmlns="http://www.w3.org/2000/svg" data-type="color">
    <g>
        <path d="M89.5 103c4-4.8 9.8-4.5 12.9-1.9 1.2 1 2.2 2.5 3.1 3.9.5.8.9 1.1 1.7 1.1 1.7 0 3.5 0 5.1.4 7.8 1.8 11.2 10.9 6.5 17.5-.1.2-.3.4-.5.7 4.3 4.7 5.9 10.1 3.6 16.2-2.2 6.1-6.8 9.2-13.2 10.1.3 5.5-1.9 9.5-7.2 11.4-4.8 1.7-8.8 0-12-4-3.4 4.2-7.7 5.8-12.8 3.7-4.7-2-6.7-6-6.4-11l-3.9-.9c-1.2-.4-1.7-1.4-1.4-2.3.3-1 1.3-1.4 2.5-1.2 2.3.3 4.6.5 6.9.7 1 .1 1.5-.5 1.5-1.5v-5.3c.1-3.2 2.5-5.4 5.6-5.4 1.3 0 2.2.7 2.2 1.8 0 1-.7 1.8-2 1.9-1.8.2-2.2.6-2.2 2.4v3.4c0 4.4-1.1 5.8-5.4 6.5-.9 3.7 1.6 7.4 5.5 8.1 3.6.7 7.4-2.1 7.8-5.9.1-.6.1-1.3.1-2v-41.7c0-1.1-.2-2.3-.6-3.3-.9-2.2-3-3.4-5.4-3.3-2.2.1-4.1 1.6-4.9 3.7-.9 2.6-1.5 3-4.3 3-1.5 0-3-.1-4.5.2-5.6.9-8.1 7.7-4.4 12.1.4.5 1.1.8 1.7.8 1.7.1 3.4.1 5.1 0 2.2 0 3.2-1 3.2-3.2v-3.6c0-1.2.8-2 1.9-2 1 0 1.8.8 1.8 1.9 0 1.5.1 3 0 4.5-.2 3.4-2.9 5.9-6.5 5.9-1.8 0-3.6.1-5.4 0-.9 0-1.5.3-2.2.9-3.5 3.6-4.4 9.1-2 13.6.2.3.4.6.5 1 .5 1 .2 2-.7 2.5-.9.5-1.8.3-2.4-.7-1.5-2.3-2.3-4.8-2.4-7.5-.2-4.2 1.2-7.9 3.9-11 .2-.2.4-.4.5-.7v-.1c-4.1-5.3-2.8-11.4.3-14.8 2.1-2.3 4.7-3.4 7.8-3.7.4 0 .7-.1 1.1 0 2 .3 3.2-.2 4.3-2.3 2.8-5.3 10.2-6 14.4-1.7.6.4.9.7 1.2 1.1zm15.3 47.9c-4.3-.7-5.4-2-5.4-6.4v-3.4c0-1.8-.4-2.2-2.2-2.4-1.3-.1-2-.8-2-1.9 0-1.1.9-1.8 2.2-1.8 3.1 0 5.5 2.2 5.7 5.4.1 1.5 0 3.1 0 4.7 0 1.9.2 2.1 2.1 2.1h2.8c4.6-.1 8.8-3.2 10.4-7.5 1.6-4.4.5-9.3-2.8-12.5-.4-.4-1.1-.6-1.6-.7-1.9-.1-3.8 0-5.6 0-3.9-.1-6.5-2.8-6.6-6.6v-3.8c0-1.2.8-2 1.9-2 1 0 1.8.8 1.8 2v3.6c0 2.1 1 3.1 3.1 3.1 1.8 0 3.5.1 5.3 0 .6 0 1.3-.4 1.7-.8 3.6-4.3 1.1-11.1-4.4-12-1.6-.3-3.2-.2-4.8-.2-2.6 0-3.3-.5-4.1-2.9-.9-2.4-3-3.9-5.6-3.8-2.4.1-4.5 1.8-5.1 4.2-.2.8-.2 1.6-.2 2.4v41.7c0 .7 0 1.3.1 2 .5 3.7 4.2 6.5 7.8 5.9 3.9-1 6.4-4.7 5.5-8.4z" fill="#ffffff" data-color="1"/>
        <path d="M85.8 76.2h7.4c-.1-2.6 1.4-4.1 3.2-5.7 3-2.7 3.9-6.3 3-10.3-.4-1.6.4-2.8 1.8-2.7 1 .1 1.5.7 1.7 1.7 1.4 5.8-.2 10.6-4.6 14.6-.3.3-.7.5-.9.8-.7.7-.4 1.4.2 2.2.6.7 1.1 1.5 1.2 2.4.2 1.8.1 3.6.1 5.4 0 2.8-.6 3.5-3.4 3.9v2.3c-.1 3.3-2.6 5.8-5.9 5.8-3.3 0-5.8-2.5-5.9-5.8v-2.3c-.5-.1-.8-.1-1.2-.1-1.3-.3-2.2-1.2-2.2-2.5-.1-2.2-.1-4.5 0-6.7 0-.7.6-1.6 1.1-2.1.7-.8.9-1.4.2-2.2-.2-.3-.6-.5-.8-.7-5.5-4.5-6.8-12.3-2.9-18.3 3.8-6 11.6-8.2 18-5.1.1.1.2.1.3.2 1.5.8 2 1.8 1.5 2.9-.5 1.1-1.6 1.2-3.2.4-4.8-2.5-10.5-1-13.5 3.5-2.9 4.4-2 10.3 2.2 13.7 1.9 1.2 2 1.5 2.6 4.7zm-1.9 8.3h11.2v-4.4H83.9v4.4zm3.3 3.8c.2 1.5-.5 3.2 1.1 4 .6.3 1.7.3 2.4 0 1.6-.9.9-2.5 1-4h-4.5z" fill="#ffffff" data-color="1"/>
        <path d="M135.7 119.5c.3-2.3.6-4.4.9-6.5.4-3.4 2.8-4.7 5.8-3.2 2.2 1.1 4.4 2.3 6.6 3.5 1.8 1 2.4 2.2 2 4.1-1 4.9-2.1 9.9-3.1 14.8-.5 2.5-2.3 3.4-4.7 2.2-1.2-.6-2.4-1.3-3.6-1.9-.3.4-.5.8-.7 1.2-1.9 3.5-3.7 7-5.6 10.5-.7 1.4-1.8 1.9-3.1 1.6-1.2-.3-1.8-1.3-1.8-2.8l.3-22.3c0-2.4 2.1-3.7 4.3-2.6.8.4 1.6.9 2.7 1.4zm-3.4 2.5v16.2c1.4-2.6 2.7-5 4-7.5 1.2-2.2 2.7-2.6 4.9-1.5 1 .5 2.1 1.1 3.2 1.7 1-4.6 1.9-9.1 2.8-13.6.1-.3 0-.8-.1-.8-2.2-1.2-4.4-2.4-6.7-3.6-.4 2.7-.7 5.2-1.1 7.7-.4 2.5-2.4 3.6-4.7 2.5-.7-.3-1.4-.7-2.3-1.1z" fill="#ffffff" data-color="1"/>
        <path d="M43.4 119.5c.9-.5 1.8-1 2.7-1.4 2-1 4.1.3 4.2 2.5l.3 22.5c0 1.5-.7 2.4-1.8 2.7-1.3.3-2.3-.2-3.1-1.6-1.9-3.5-3.7-7-5.6-10.5-.2-.4-.4-.8-.7-1.2-1.3.7-2.6 1.4-3.8 2-2.1 1-3.9.2-4.4-2-1.1-5.1-2.2-10.2-3.2-15.3-.4-1.8.2-3 1.9-3.8 2.3-1.2 4.6-2.5 6.9-3.7 2.7-1.4 5.2-.1 5.6 3 .3 1.9.5 3.9.8 5.8 0 .4.1.6.2 1zm-11.7-2.8c1 4.8 2 9.5 3 14.3 1.2-.6 2.2-1.2 3.3-1.7 2-1.1 3.6-.6 4.7 1.4 1.2 2.2 2.4 4.5 3.5 6.7.1.3.3.5.4.6v-15.9c-.8.4-1.3.7-1.9.9-2.7 1.4-4.7.3-5.1-2.6-.3-2.4-.7-4.8-1-7.4-2.3 1.2-4.6 2.4-6.9 3.7z" fill="#ffffff" data-color="1"/>
        <path d="M91.3 41.1c0 .7.1 1.4 0 2.1-.1 1-.7 1.7-1.8 1.7-1 0-1.8-.6-1.8-1.6-.1-1.5-.1-2.9 0-4.4.1-1 .8-1.5 1.7-1.5 1 0 1.7.6 1.8 1.6.2.6.1 1.4.1 2.1z" fill="#ffffff" data-color="1"/>
        <path d="M75.6 42.4c1.5 0 5.1 3.5 4.9 4.6-.1.6-.5 1.3-.9 1.5-.5.3-1.5.2-1.9-.1-1.2-.9-2.3-2-3.2-3.2-.3-.4-.3-1.4-.1-1.9.3-.4 1-.7 1.2-.9z" fill="#ffffff" data-color="1"/>
        <path d="M100 49c-.4-.3-1.1-.6-1.3-1.1-.2-.5-.3-1.4.1-1.8 1-1.2 2.1-2.4 3.4-3.3.4-.3 1.5-.1 2.1.2.8.5 1 1.5.4 2.2-1.1 1.3-2.3 2.4-3.5 3.5-.3.1-.7.1-1.2.3z" fill="#ffffff" data-color="1"/>
        <path d="M119.7 72.6c0 1-.8 1.8-1.8 1.8-1.1 0-1.9-.8-1.9-1.8s.8-1.8 1.8-1.8c1-.1 1.9.8 1.9 1.8z" fill="#ffffff" data-color="1"/>
        <path d="M125.1 77.7c0 1-.8 1.8-1.8 1.8s-1.9-.8-1.9-1.8c0-.9.9-1.8 1.8-1.8 1.1-.1 1.9.8 1.9 1.8z" fill="#ffffff" data-color="1"/>
        <path d="M133.8 99.1c-1 0-1.9-.8-1.8-1.9 0-1 .8-1.8 1.8-1.8s1.9.9 1.9 1.9c-.1 1-1 1.8-1.9 1.8z" fill="#ffffff" data-color="1"/>
        <path d="M61.2 74.4c-1.1 0-1.9-.8-1.9-1.8s.8-1.8 1.8-1.8 1.9.8 1.9 1.8-.8 1.8-1.8 1.8z" fill="#ffffff" data-color="1"/>
        <path d="M57.6 77.7c0 1-.9 1.8-1.9 1.8-1 0-1.7-.8-1.7-1.8s.9-1.9 1.9-1.8c.8 0 1.7.8 1.7 1.8z" fill="#ffffff" data-color="1"/>
        <path d="M131.4 92c-1 0-1.9-.8-1.9-1.8s.9-1.8 1.8-1.8c1 0 1.9.8 1.8 1.9.1 1-.7 1.7-1.7 1.7z" fill="#ffffff" data-color="1"/>
        <path d="M47.1 97.4c0 1-.8 1.8-1.8 1.8s-1.9-.8-1.9-1.8.8-1.8 1.8-1.8c1.1-.1 1.9.7 1.9 1.8z" fill="#ffffff" data-color="1"/>
        <path d="M69.2 68.4c0 1-.7 1.8-1.7 1.9-1 .1-1.9-.7-1.9-1.8 0-1 .7-1.8 1.7-1.9 1.1 0 1.9.7 1.9 1.8z" fill="#ffffff" data-color="1"/>
        <path d="M51.1 81.8c1 0 1.8.7 1.9 1.7.1 1-.7 1.9-1.8 1.9-1 0-1.9-.8-1.9-1.8 0-.9.8-1.8 1.8-1.8z" fill="#ffffff" data-color="1"/>
        <path d="M127.9 85.4c-1 0-1.8-.8-1.8-1.7 0-1 .8-1.9 1.8-1.9s1.9.9 1.8 1.9c0 .9-.9 1.7-1.8 1.7z" fill="#ffffff" data-color="1"/>
        <path d="M47.7 92c-1.1 0-1.9-.8-1.8-1.8 0-1 .8-1.8 1.8-1.8s1.9.9 1.9 1.9c-.1.9-.9 1.7-1.9 1.7z" fill="#ffffff" data-color="1"/>
        <path d="M134.9 102.9c1 0 1.9.8 1.9 1.8s-.8 1.8-1.8 1.8-1.9-.8-1.8-1.8c-.1-1 .7-1.8 1.7-1.8z" fill="#ffffff" data-color="1"/>
        <path d="M109.8 68.3c0-1 .9-1.8 2-1.7 1 .1 1.7.9 1.7 1.9-.1 1-.9 1.7-1.9 1.7-1.1 0-1.9-.8-1.8-1.9z" fill="#ffffff" data-color="1"/>
        <path d="M44.1 102.9c1 0 1.8.8 1.8 1.8 0 1.1-.8 1.9-1.8 1.8-1 0-1.8-.8-1.8-1.8-.1-1 .8-1.8 1.8-1.8z" fill="#ffffff" data-color="1"/>
    </g>
</svg>
