<?xml version="1.0" encoding="UTF-8"?>
<svg data-bbox="42.1 49.8 94.7 110.465" viewBox="0 0 179 210" xmlns="http://www.w3.org/2000/svg" data-type="shape">
    <g>
        <path d="M89.5 137.8H77.9c-1.1 0-1.8-.2-1.8-1.5-.1-7-3.4-12.4-8.1-17.4-9.4-9.8-11-24.6-3.8-36C70.6 72.8 80 67.8 91.9 68.7c12.1 1 20.8 7.4 25.3 18.7 4.4 11.1 2.4 21.5-5.3 30.7-2 2.5-4.5 4.7-5.9 7.5-1.5 3.1-2.2 6.7-2.9 10.2-.3 1.4-.6 2-2.1 2-3.9-.1-7.7 0-11.5 0zm-.1-3.3c2.8 0 5.7.1 8.5-.1.6 0 1.7-.7 1.8-1.2 1.1-6.8 4.6-12.1 9.3-17 11.6-12.3 8.2-32.7-6.6-40.9-11.5-6.3-25.7-3.4-33.8 7-8 10.3-7.3 24.9 1.9 34.5 4.5 4.6 7.8 9.8 8.7 16.3.2 1.2.8 1.5 1.9 1.5 2.8-.2 5.5-.1 8.3-.1z"/>
        <path d="M89.5 145.2H78.6c-1.2 0-2.3-.2-2.3-1.7 0-1.4 1.2-1.6 2.4-1.6h21.8c1.2 0 2.3.2 2.3 1.7s-1.2 1.6-2.4 1.6H89.5z"/>
        <path d="M107.7 70.1c-1.4-.8-2.6-1.4-4.1-2.3.9-1.7 1.8-3.2 2.7-4.7 1.2-2.1 2.3-4.4 3.8-6.3.5-.7 2.2-1.1 2.9-.8.7.4 1.3 2.1 1 2.8-1.9 3.8-4.1 7.5-6.3 11.3z"/>
        <path d="M75.4 67.8c-1.4.8-2.6 1.5-4.1 2.3-2.2-3.8-4.4-7.5-6.3-11.3-.3-.7.4-2.5 1-2.8.7-.3 2.4.2 2.9.9 2.3 3.4 4.2 7.1 6.5 10.9z"/>
        <path d="M89.3 152.7c-2.8 0-5.7.1-8.5-.1-.8-.1-2-.9-2.1-1.5-.3-1.4 1-1.7 2.2-1.7h17.2c1.2 0 2.3.2 2.3 1.7s-1.2 1.6-2.4 1.6h-8.7z"/>
        <path d="M87.3 64.8c0-4.6-.1-8.9.1-13.2 0-.7 1.4-1.8 2.1-1.8.8 0 2.1 1.1 2.2 1.8.2 4 .2 8.1.1 12.2 0 .4-.6 1-1 1-1.1.1-2.2 0-3.5 0z"/>
        <path d="M119.1 82.6c-.9-1.4-1.6-2.5-2.4-3.9 1.4-.9 2.8-1.7 4.1-2.5 2.1-1.2 4.1-2.4 6.2-3.6 1.3-.8 2.6-.7 3.4.8.7 1.3.3 2.4-.9 3.2-3.4 1.9-6.8 3.9-10.4 6z"/>
        <path d="M50.2 71.9c.9.3 1.4.5 1.8.7 3 1.7 6 3.5 9 5.2 1.1.6 1.2 1.4.4 2.2-.8.8-.7 2.9-2.7 1.8-3.1-1.8-6.2-3.5-9.2-5.4-.7-.5-1.2-1.8-1.1-2.7.1-.6 1.2-1.2 1.8-1.8z"/>
        <path d="M129.4 94.7c1.7 0 3.3-.1 5 0 1.4.1 2.4.8 2.4 2.3 0 1.5-.9 2.3-2.4 2.3-3.3.1-6.7.1-10 0-2.4-.1-1.2-2-1.5-3.2-.3-1.2.4-1.5 1.5-1.5 1.7.1 3.4.1 5 .1z"/>
        <path d="M56 94.7c0 1.3.2 2.3-.1 3.3-.1.6-.9 1.3-1.4 1.3-3.3.1-6.5.1-9.8 0-1.5 0-2.6-.7-2.6-2.4 0-1.6 1.1-2.3 2.6-2.3 3.7.1 7.4.1 11.3.1z"/>
        <path d="M58.8 112.1c.6 1.1 1.2 1.9 1.5 2.9.1.6-.1 1.6-.5 1.9-2.6 1.7-5.4 3.2-8.1 4.7-1.3.7-2.6.5-3.1-.8-.3-.8.1-2.5.7-2.9 3-2.1 6.2-3.8 9.5-5.8z"/>
        <path d="M120.2 112.1c3.3 2 6.6 3.7 9.6 5.8.6.4.9 2.2.5 2.8-.5.7-2.1 1.2-2.9.9-2.9-1.4-5.7-3.1-8.5-4.8-.4-.2-.6-1.1-.4-1.6.4-1 1.1-1.9 1.7-3.1z"/>
        <path d="M89.5 160.2c-2 0-4.1.2-6.1-.1-.7-.1-1.4-1.1-2-1.7.7-.5 1.3-1.5 2-1.5 4.1-.1 8.1-.1 12.2 0 .7 0 1.4 1.1 2 1.7-.7.5-1.3 1.4-2 1.5-2 .2-4 .1-6.1.1z"/>
        <path d="M96.6 77.4c-1.4 7.8-2.9 15.7-4.4 23.9 2.1-.6 3.7-1 5.9-1.6-4.3 10.6-8.4 20.7-12.6 30.7-.2 0-.4-.1-.5-.1 1.4-7.9 2.9-15.7 4.4-24-2.1.5-3.7.9-5.9 1.5 4.3-10.6 8.4-20.6 12.6-30.7.1.2.3.3.5.3z"/>
    </g>
</svg>
