<svg width="71" height="50" viewBox="0 0 71 50" fill="none" xmlns="http://www.w3.org/2000/svg">
<path d="M50.3228 25C50.3228 33.1864 43.6864 39.8228 35.5 39.8228C27.3136 39.8228 20.6772 33.1864 20.6772 25C20.6772 16.8136 27.3136 10.1772 35.5 10.1772C43.6864 10.1772 50.3228 16.8136 50.3228 25Z" stroke="#FDE047" stroke-width="5"/>
<path d="M65.8424 21.0508C67.2808 22.7972 68 23.6704 68 25C68 26.3296 67.2808 27.2028 65.8424 28.9492C60.58 35.3384 48.9729 47.2342 35.5 47.2342C22.0271 47.2342 10.42 35.3384 5.15762 28.9492C3.71921 27.2028 3 26.3296 3 25C3 23.6704 3.71921 22.7972 5.15762 21.0508C10.4201 14.6616 22.0271 2.76581 35.5 2.76581C48.9729 2.76581 60.58 14.6616 65.8424 21.0508Z" stroke="#FDE047" stroke-width="5"/>
</svg>
