<?xml version="1.0" encoding="UTF-8"?>
<svg data-bbox="34.895 40.689 112.969 113.311" viewBox="0 0 179 210" xmlns="http://www.w3.org/2000/svg" data-type="color">
    <g>
        <path d="M129 153.8h-10.9c-2.6 0-4.6-1.5-5-3.8-.4-2.3.8-4.3 3.3-5.3.2-.1.5-.3.5-.4 0-1.2.1-2.4-.1-3.5 0-.3-.9-.6-1.3-.6-2.1.1-4.1.4-6.2.5-1.1.1-2.3.2-3.4 0-3-.6-5-3.1-5.1-6.1 0-2.5-.1-5.1 0-7.6 0-1.2-.4-1.9-1.5-2.2-.8-.2-1.5-.6-2.3-.9-2.7-1.2-3.6-4.3-2-6.8 1.2-1.9 2.5-3.6 3.8-5.4 1.2-1.7 1.9-3.5 2.2-5.6 1.3-9.9 9.1-18 18.9-19.8 12.7-2.3 24.6 5.6 27.4 18.2 1.1 5 .6 9.9-1.6 14.7-1.1 2.4-2.3 4.8-3.1 7.3-.6 1.9-.8 3.9-.9 5.9-.1 3.4 0 6.8-.1 10.2 0 .6.1 1 .8 1.2 2.4 1.1 3.6 3.6 3.1 6-.6 2.5-2.7 4.2-5.4 4.2-3.6-.2-7.4-.2-11.1-.2zm9.4-10.6c0-3.2-.1-6.2 0-9.2.1-2.4.1-4.9.7-7.2.8-2.9 2-5.7 3.3-8.4 1.9-4.1 2.6-8.4 1.8-12.9-1.8-9.5-10.4-16.6-20.1-16.4-10 .2-18.4 7.5-19.7 17.2-.4 2.8-1.3 5.2-3 7.5-1.2 1.6-2.3 3.2-3.5 4.9-.7 1-.4 1.8.7 2.2l2.1.9c2.4 1 3.4 2.4 3.4 5v7.4c0 2.2 1.3 3.5 3.5 3.3 2.4-.1 4.8-.4 7.1-.6 3.3-.3 5.4 1.5 5.4 4.8v2.7c6.3-.4 12.2-.8 18.3-1.2zm-9.4 7.3h11.2c1.1 0 1.9-.5 2.1-1.6.2-1-.1-1.8-1-2.2-.4-.2-1-.2-1.5-.2-4.2.2-8.5.5-12.7.8-3 .2-5.9.4-8.9.6-1.3.1-1.9.5-1.9 1.3 0 .9.6 1.3 2 1.3H129z" fill="#ffffff" data-color="1"/>
        <path d="M62.5 144.3v-3c.1-3 2.1-4.8 5-4.6 2.5.2 5 .5 7.5.6 2.3.1 3.6-1.1 3.6-3.4v-7.4c0-2.5 1-4 3.3-4.9l2.1-.9c1.1-.5 1.4-1.3.7-2.3-1.1-1.6-2.2-3.1-3.3-4.7-1.7-2.3-2.7-4.9-3.1-7.8-1.3-9.6-10.1-17-20-17-10.1.1-18.7 7.6-20 17.3-.5 4.3.2 8.3 2.1 12.1 1.6 3.2 3.1 6.3 3.6 9.9.1 1.2.2 2.3.3 3.5 0 1.3-.6 2-1.7 2-1 0-1.6-.7-1.6-1.9 0-3.9-1.1-7.5-2.9-10.9-2-3.8-3.3-7.9-3.2-12.2.1-13.3 11.8-24 25.3-22.8 11.2.9 19.8 9.1 21.4 20.2.3 2 1 3.8 2.2 5.5 1.2 1.7 2.4 3.3 3.6 5 2 2.9 1 6-2.3 7.4-.1 0-.2.1-.3.1-3.3 1.3-3 .8-3 4.4v5.7c-.1 3.9-2.9 6.6-6.8 6.5-2.5-.1-5-.4-7.5-.6-1.5-.1-1.8.1-1.8 1.6v.7c-.2 1.3 0 2.2 1.6 2.8 1.9.7 2.7 3.1 2.2 5-.5 2.1-2.3 3.5-4.5 3.5H42.5c-3.2 0-5.6-2.4-5.6-5.4 0-3.1 2.5-5.4 5.8-5.2 5.7.3 11.3.7 17 1 .9.1 1.7.2 2.8.2zm-8.8 6.2h11c1.2 0 1.8-.7 1.6-1.5-.2-.9-.9-1.1-1.7-1.1-4.3-.3-8.5-.5-12.8-.8-3.1-.2-6.2-.4-9.3-.5-1.3-.1-2.2.6-2.3 1.7-.2 1.3.8 2.3 2.3 2.3 3.8-.1 7.5-.1 11.2-.1z" fill="#ffffff" data-color="1"/>
        <path d="M91.3 92h-4.5c-3-.1-4.7-1.7-4.6-4.7 0-1.5-.2-3.1.4-4.3.7-1.4.4-2.4-.3-3.5-.7-1-1.4-2-2.3-3-8.1-9-3.6-23.1 8.3-25.6 5.7-1.2 10.6.5 14.6 4.8.9 1 1 2 .2 2.7-.8.6-1.7.5-2.6-.5-6.6-6.9-17.7-4.6-20.6 4.4-1.4 4.3-.6 8.2 2.4 11.7 1.5 1.8 3 3.6 3.9 5.8.1.3.6.6.9.6h8.7c.3 0 .7-.3.9-.6 1.2-1.7 2.1-3.6 3.4-5.1 2.5-2.9 3.7-6.1 3.4-9.8-.1-.8.1-1.6.9-1.8.5-.2 1.3-.1 1.7.2.4.3.7 1.1.7 1.6.3 4.3-1 8-3.7 11.4-1.2 1.5-2.3 3.2-3.3 4.8-.2.3 0 .9.1 1.3.2.9.6 1.7.7 2.6.1.9 0 1.9 0 2.9-.1 2.4-1.6 4.1-4 4.3-1.8-.1-3.6-.2-5.3-.2zm0-8.3h-4.7c-.8 0-1.2.3-1.2 1.1v2.8c0 .7.4 1.1 1.1 1.1h9.7c.7 0 1.1-.4 1.1-1.1v-2.5c0-.9-.4-1.4-1.3-1.3-1.6 0-3.1-.1-4.7-.1z" fill="#ffffff" data-color="1"/>
        <path d="M89.7 44.1c0-.7-.1-1.3 0-2 .1-.9.7-1.5 1.6-1.4.9 0 1.5.5 1.6 1.4.1 1.4.1 2.7 0 4.1-.1.9-.7 1.5-1.6 1.4-.9 0-1.5-.6-1.6-1.5v-2z" fill="#ffffff" data-color="1"/>
        <path d="M79 79.3c0 1.4-3.2 4.7-4.2 4.6-.5-.1-1.2-.5-1.5-.9-.2-.4-.1-1.3.2-1.7.8-1 1.8-2 2.8-2.8.4-.3 1.2-.4 1.7-.2s.8.8 1 1z" fill="#ffffff" data-color="1"/>
        <path d="M109.6 82.6c-.3.3-.5 1-1 1.1-.5.2-1.3.2-1.7-.1-1.1-.8-2-1.8-2.9-2.9-.6-.6-.5-1.4 0-2 .5-.6 1.3-.9 2-.4 1.2 1 2.3 2.2 3.4 3.3.1.1.1.5.2 1z" fill="#ffffff" data-color="1"/>
        <path d="M77.7 53.4c-1.4 0-4.7-3.2-4.5-4.2.1-.5.4-1.2.9-1.4.5-.2 1.3-.2 1.7.1 1.1.8 2 1.8 2.9 2.9.3.4.3 1.2.1 1.7-.2.4-.9.7-1.1.9z" fill="#ffffff" data-color="1"/>
        <path d="M109.5 49.1c0 1.1-3.2 4.4-4.2 4.3-.5-.1-1.2-.4-1.4-.9-.2-.4-.2-1.3 0-1.6.9-1.1 2-2.2 3.1-3.1 1.1-.8 2.5 0 2.5 1.3z" fill="#ffffff" data-color="1"/>
        <path d="M69.7 67.4h-1.9c-1-.1-1.6-.7-1.6-1.6 0-.9.6-1.6 1.6-1.6 1.2-.1 2.5-.1 3.8 0 1 0 1.6.8 1.6 1.6 0 .9-.7 1.6-1.6 1.6h-1.9z" fill="#ffffff" data-color="1"/>
        <path d="M112.9 67.4h-1.8c-1-.1-1.7-.7-1.7-1.7 0-.9.7-1.6 1.6-1.6 1.2 0 2.5-.1 3.8 0 .9 0 1.6.8 1.6 1.7 0 .9-.7 1.5-1.6 1.6h-1.9z" fill="#ffffff" data-color="1"/>
    </g>
</svg>
