<?xml version="1.0" encoding="UTF-8"?>
<svg data-bbox="27.153 50.075 112.747 115.403" viewBox="0 0 179 210" xmlns="http://www.w3.org/2000/svg" data-type="color">
    <g>
        <path d="M89.8 63.8c.1-4.8-3.2-8.9-7.8-10.1-4.3-1-9.1 1.1-10.9 4.7 1.6 1 3.3 1.9 4.7 3.1 3.1 2.6 4.7 6 4.9 10.1.1 1.3-.5 2.1-1.5 2.2-1 .1-1.7-.7-1.8-2-.2-3-1.3-5.5-3.5-7.6-5.6-5.3-15.4-2.9-17.6 4.5-.4 1.4-.6 2.9-.6 4.4 0 2.2-.7 2.8-2.8 2.3-4.7-1-8.5.3-11.4 4-2.3 2.9-2.8 6.3-1.7 9.6 2.3-.3 4.5-.7 6.7-.9 1.2-.1 2 .7 1.9 1.7 0 .9-.7 1.5-1.9 1.7-1.5.2-3 .4-4.4.7-5.9 1.5-10.5 6.9-11.3 13.3-.8 6.1 2.3 12.5 7.4 15.5h-.1c1.7-1.4 3.2-2.7 4.8-3.9 1-.8 2.1-.6 2.6.3.5.9.3 1.9-.9 2.5-4.2 2.5-6.6 7.7-4.8 12.9.4 1.2 1.1 2.3 1.8 3.3.8 1.2.9 2.1 0 2.8-.8.7-1.8.4-2.8-.8-3-3.9-3.9-8.3-2.4-13 .2-.8.1-1.1-.6-1.5-10.9-7.4-11.6-22.8-1.5-31.2.7-.6 1.4-1 2.2-1.6-1.6-5-1-9.7 2.3-13.9 3.3-4.1 7.8-5.8 13-5.2.2-1.1.3-2.2.6-3.3 1.8-6 7.3-10.4 13.7-10.4 1 0 1.5-.4 2-1.2 2.7-5 9-7.7 14.6-6.4 5.9 1.4 10.3 6.4 10.6 12.3 0 .3.1.7.1 1.1 1.2 0 2.3.1 3.5 0 .3 0 .6-.5.7-.8 1.3-2.4 3.9-3.6 6.5-3 2.5.6 4.3 2.9 4.3 5.5s-1.8 4.9-4.4 5.6c-2.6.7-5.3-.5-6.5-3.1-.3-.6-.6-.8-1.3-.8h-2.9v11c.1 0 .2.1.3.1h13.1c.4 0 1-.2 1.3-.5 2-2 3.9-4 6-6-.8-1.5-1.2-3.1-.6-4.8.9-3 4-4.7 7-3.9 2.9.8 4.8 3.8 4 6.8-.7 3-3.7 5-6.7 4.3-.7-.2-1.2 0-1.7.5l-5.4 5.4c-1.1 1.1-2.4 1.7-4 1.7H93.3v6.9c.4 0 .8.1 1.2.1h16.4c1.7 0 3.1.5 4.3 1.8.9.9 1.9 1.8 2.8 2.8.8.9.9 1.9.2 2.6-.7.7-1.7.7-2.6-.2-.9-.9-1.8-1.9-2.8-2.7-.4-.4-1.1-.7-1.7-.7-5.8-.1-11.5 0-17.3 0-.1 0-.3 0-.5.1v9.6c1.3 0 2.4.1 3.6 0 .3 0 .7-.5.8-.8 1.2-2.2 3.5-3.4 6-3 2.4.3 4.2 2.1 4.7 4.5.6 2.7-1 5.5-3.6 6.5-2.7 1-5.8-.1-7.1-2.7-.4-.8-.8-1-1.6-1-.9.1-1.9 0-2.9 0v12.2c.3 0 .6.1.9.1h15.5c.7 0 1-.2 1.4-.8 1.2-2.4 3.8-3.7 6.3-3.1 2.7.6 4.5 2.9 4.5 5.6 0 2.7-1.8 4.9-4.4 5.5-2.6.6-5.2-.6-6.5-3-.3-.5-.4-.8-1.1-.8H93.6c-.1 0-.3 0-.5.1v11.2h13.6c.7 0 1-.1 1.4-.8 1.2-2.5 3.8-3.7 6.5-3.1 2.5.6 4.4 2.9 4.4 5.5 0 2.7-1.8 4.9-4.5 5.6-2.5.6-5.2-.6-6.4-3.1-.2-.5-.4-.9-1.1-.9H93.8c-.2 0-.4 0-.6.1v8.9h4.7c6.7 0 5.6-.4 10.1 4.2.8.8 1.5 1.2 2.8.9 2.5-.5 4.9.8 6 3.1 1.1 2.2.6 4.9-1.2 6.6-1.8 1.7-4.5 2.1-6.6.9-2.2-1.2-3.4-3.6-2.9-6.1v-.2c1.2-1.5 0-2.4-.9-3.3-3.4-3.2-1.8-2.6-6.5-2.7h-5.6v4.1c-.2 5.7-3.6 10.4-9 12.4-6.1 2.2-13.1-.4-16.3-6.1-.3-.6-.6-1-1.4-1-7.8 0-13.7-5.5-14.4-13.3 0-.1-.1-.2-.1-.4H49c-1.2-.1-1.8-.7-1.8-1.7 0-.9.7-1.6 1.8-1.6 3 .1 5.6-.8 8-2.5.9-.6 1.9-.4 2.4.3.6.8.4 1.8-.5 2.4-.9.6-1.8 1.2-2.8 1.7-.5.3-.7.6-.7 1.2 0 5.3 4.7 10.2 10 10.5 3 .2 5.8-.6 8.1-2.6.2-.1.3-.3.5-.4.8-.6 1.7-.5 2.3.2.6.7.6 1.7-.2 2.4-1.3 1-2.8 1.9-4.2 2.8-.3.2-.7.3-1 .5 1.4 3.1 5.3 5.3 9.1 5.1 3.8-.2 7.6-2.6 8.8-6h-2c-1.1 0-1.8-.6-1.8-1.6-.1-1 .6-1.7 1.8-1.8 1-.1 1.9 0 3 0v-12.2c-2.1 0-4.3-.2-6.3.1-2.1.3-3.7 2.3-3.9 4.5-.1.6-.3 1.4-.8 1.8-.3.3-1.2.4-1.6.2-.5-.3-.9-1-1-1.6-.2-3.9 3.2-7.9 7.1-8.3 2.1-.2 4.3 0 6.5 0V114H62.5c-.9-.1-1.5-.6-1.5-1.5-.1-.9.4-1.5 1.3-1.7.4-.1.9-.1 1.3-.1h26.2V82.4H76.6c-5.1 0-9-3.7-9.2-8.4-.1-1.3.4-2 1.4-2.1 1.1-.1 1.8.6 1.9 1.9.4 3.4 2.5 5.3 5.9 5.3h12.2c.3 0 .6 0 .9-.1V67.9h-2.9c-1.2 0-1.9-.7-1.9-1.6 0-1 .7-1.7 1.9-1.7h1.5c.5-.8.9-.8 1.5-.8zm31.4 4.8c0-1.2-1.2-2.3-2.4-2.3-1.3 0-2.3 1.2-2.3 2.4.1 1.2 1.1 2.2 2.3 2.2 1.3.1 2.4-1 2.4-2.3zm-18.3 37.2c1.3 0 2.4-1.1 2.3-2.3 0-1.2-1.1-2.3-2.3-2.3-1.3 0-2.4 1-2.4 2.3 0 1.2 1.1 2.3 2.4 2.3zm11.2 49.2c0-1.3-1.1-2.3-2.4-2.3-1.2.1-2.2 1.1-2.2 2.3 0 1.3 1 2.3 2.4 2.3 1.2 0 2.2-1 2.2-2.3zm-13.8-89.4c0 1.3 1.1 2.3 2.4 2.3 1.2 0 2.3-1.1 2.3-2.3 0-1.2-1.1-2.3-2.4-2.3-1.3-.1-2.3 1-2.3 2.3zm18.2 53.5c0-1.3-1-2.4-2.3-2.4-1.3 0-2.4 1.1-2.4 2.3 0 1.2 1.1 2.3 2.3 2.3 1.3.2 2.4-.9 2.4-2.2zm-2.8 14.8c.1-1.3-.9-2.4-2.2-2.5-1.2-.1-2.4.9-2.5 2.2-.1 1.2.9 2.3 2.1 2.4 1.3.1 2.5-.8 2.6-2.1z" fill="#ffffff" data-color="1"/>
        <path d="M136.3 108.5c-.1 2.1-1.2 3.9-3.4 4.9-2.2 1-4.4.6-6.1-1-1.8-1.6-2.3-3.7-1.5-6 .2-.6.2-1-.3-1.5-.9-.8-1.7-1.6-2.5-2.4-.8-.8-.9-1.8-.2-2.5s1.7-.7 2.6.1c.8.8 1.7 1.6 2.5 2.5.4.5.8.5 1.5.3 3.6-1.4 7.4 1.4 7.4 5.6zm-3.4-.3c0-1.3-1-2.3-2.3-2.3-1.3 0-2.4 1-2.4 2.3 0 1.2 1 2.3 2.3 2.3 1.4 0 2.4-1 2.4-2.3z" fill="#ffffff" data-color="1"/>
        <path d="M50 100.4c-.6-.3-1.4-.4-1.8-.8-.9-.9-.3-2.3.9-2.6.8-.2 1.6-.2 2.4-.4 3.1-.9 5.2-4.1 4.8-7.2-.4-3.4-3-5.9-6.3-6.2-.3 0-.5 0-.8-.1-1-.2-1.5-.9-1.4-1.8.1-.9.8-1.5 1.8-1.5 2.9.1 5.4 1.1 7.4 3.3 5.4 6 2.6 14.9-5.2 17-.5.1-1.1.2-1.7.3-.1-.1-.1-.1-.1 0z" fill="#ffffff" data-color="1"/>
        <path d="M61.1 125.9h-6.6c-3.1 0-5 1.8-5.4 4.8 0 .2-.1.4-.1.5-.2 1-.8 1.5-1.8 1.4-.9-.1-1.4-.8-1.4-1.8 0-4.1 3.4-8.1 7.5-8.3 5.1-.2 10.3-.1 15.5-.1 1 0 1.6.7 1.7 1.6 0 .9-.6 1.7-1.7 1.7-1.3.1-2.7 0-4 0-1.3.2-2.5.2-3.7.2z" fill="#ffffff" data-color="1"/>
        <path d="M139.9 128.4c0 3.2-2.5 5.7-5.7 5.7-3.1 0-5.7-2.5-5.8-5.6 0-3.1 2.6-5.8 5.7-5.8 3.2 0 5.7 2.5 5.8 5.7zm-5.8 2.3c1.3 0 2.4-1 2.4-2.3 0-1.3-1.1-2.3-2.4-2.3-1.2 0-2.3 1-2.3 2.3-.1 1.2 1 2.3 2.3 2.3z" fill="#ffffff" data-color="1"/>
        <path d="M128.5 91c-3.1 0-5.7-2.5-5.7-5.7s2.6-5.8 5.8-5.7c3.2 0 5.7 2.6 5.7 5.7-.1 3.2-2.6 5.7-5.8 5.7zm0-3.4c1.3 0 2.4-1.1 2.3-2.3 0-1.3-1.1-2.3-2.4-2.3-1.2 0-2.3 1.1-2.3 2.3.1 1.2 1.1 2.3 2.4 2.3z" fill="#ffffff" data-color="1"/>
        <path d="M126.8 140.3c3.2 0 5.7 2.5 5.8 5.6.1 3.1-2.6 5.8-5.7 5.8s-5.7-2.6-5.7-5.7c-.1-3.2 2.4-5.7 5.6-5.7zm.1 3.3c-1.3 0-2.4 1-2.4 2.3 0 1.3 1.1 2.3 2.3 2.3 1.2 0 2.3-1 2.3-2.2.1-1.3-.9-2.3-2.2-2.4z" fill="#ffffff" data-color="1"/>
        <path d="M70.2 138.5c-.2 4.5-3.6 7.9-8.1 8.2-1.1.1-1.8-.5-2-1.4-.1-1 .5-1.8 1.6-1.9 1.4-.2 2.7-.5 3.7-1.6 1.3-1.4 1.7-3.1 1.1-5-.7-1.9-2.1-3-4.1-3.4-1.8-.3-2.4-.9-2.3-2 .2-1.1 1.1-1.6 2.8-1.3 4.3.6 7.5 4.4 7.3 8.4z" fill="#ffffff" data-color="1"/>
        <path d="M86.4 97.8c0 3.9-3.2 7.3-7.1 7.3-1.1 0-1.8-.5-1.9-1.5-.1-1 .4-1.6 1.5-1.8.4-.1.7-.1 1.1-.2 1.8-.5 3.1-2.2 3-4.1-.1-1.9-1.5-3.4-3.4-3.7-.3 0-.5-.1-.8-.1-1.1-.2-1.6-.9-1.5-1.9.1-.9.8-1.4 1.8-1.4 4.1 0 7.4 3.4 7.3 7.4z" fill="#ffffff" data-color="1"/>
        <path d="M60.8 103.7c-.6-.2-1.3-.2-1.7-.6-.4-.4-.6-1.2-.5-1.7.2-.5.9-1 1.5-1.2 1.4-.5 2.9-.6 4.1-1.2 2.6-1.3 4.1-3.5 4.5-6.4 0-.3.1-.7.1-1 .1-1.2.8-1.8 1.8-1.8s1.7.8 1.6 2c-.1 2.2-.6 4.2-1.9 6-2.2 3.5-5.3 5.5-9.5 5.9z" fill="#ffffff" data-color="1"/>
        <path d="M50 113.4c-2.9.2-5.6-.3-7.8-2.3-1.9-1.7-2.9-3.9-3-6.4-.1-1 .6-1.8 1.5-1.9.9-.1 1.6.6 1.8 1.6.6 4 2.5 5.6 6.5 5.6h3.6c1.3 0 2.1.7 2 1.7 0 1-.8 1.6-2 1.6-.9.1-1.8.1-2.6.1z" fill="#ffffff" data-color="1"/>
        <path d="M59.7 71c.2-3.8 3.9-6.9 7.7-6.6 1 .1 1.5.6 1.6 1.5.1 1-.4 1.5-1.4 1.7-.3 0-.5.1-.8.1-2.1.2-3.3 1.3-3.7 3.4-.2 1.2-.9 1.8-1.8 1.8-1 0-1.6-.8-1.6-1.9z" fill="#ffffff" data-color="1"/>
        <path d="M78.9 122.5h3.4c1.1 0 1.8.7 1.8 1.6 0 .9-.6 1.7-1.7 1.7-2.3.1-4.6.1-6.9 0-1.1 0-1.7-.8-1.6-1.7 0-1 .7-1.5 1.8-1.6h3.2z" fill="#ffffff" data-color="1"/>
    </g>
</svg>
