<?xml version="1.0" encoding="UTF-8"?>
<svg data-bbox="28.002 49.8 110.398 110.2" viewBox="0 0 179 210" xmlns="http://www.w3.org/2000/svg" data-type="color">
    <g>
        <path d="M67.8 77.4c0-1.9.1-3.6 0-5.4-.1-.7-.5-1.4-1-1.9-3.4-3.5-6.8-6.8-10.1-10.1-.2-.2-.8-.3-1.2-.2-2.8.8-5.6-.7-6.4-3.4-.8-2.7.8-5.5 3.5-6.3 2.8-.8 5.6.8 6.2 3.6.2.8.2 1.8-.1 2.6-.2.8 0 1.2.5 1.7 3.1 3.1 6.1 6.2 9.2 9.2 1.8 1.8 2.8 3.8 2.6 6.3-.1 1.3 0 2.6 0 3.9h3.7v-6.8c.1-1 .8-1.7 1.6-1.7.9 0 1.5.7 1.6 1.7v6.8h3.7V52.5c0-.5 0-.9.1-1.4.1-.8.7-1.3 1.5-1.3s1.4.4 1.5 1.2c.1.5.1.9.1 1.4v24.9h3.7v-5.6c0-.5 0-1.1.1-1.6.1-.8.7-1.3 1.5-1.3s1.4.4 1.6 1.2c.1.4.1.9.1 1.3v6h3.6V64.1c0-.7-.1-1.1-.8-1.4-2.2-1.1-3.1-3.5-2.5-5.7.6-2.2 2.6-3.7 4.8-3.8 2.3 0 4.4 1.6 4.9 3.8.6 2.3-.4 4.5-2.5 5.8-.3.2-.7.6-.7.9v13.8c1.4 0 2.8-.1 4.2 0 4.2.2 7.8 3.7 7.9 8.8v3.1c1.9 0 3.8.1 5.6 0 .6 0 1.4-.5 1.8-1 3.4-3.3 6.7-6.7 10.1-10.1.3-.3.3-.9.2-1.3-.7-2.6.6-5.3 3.2-6.2 2.6-.9 5.4.3 6.4 2.8s-.1 5.3-2.5 6.5c-1.2.6-2.4.7-3.7.2-.6-.2-1-.1-1.4.3-3.2 3.2-6.4 6.3-9.5 9.5-1.7 1.7-3.6 2.6-6 2.5h-4.1v3.7h6.7c1.1.1 1.8.7 1.8 1.6 0 .9-.7 1.6-1.8 1.6h-6.7v3.7h24.9c.5 0 .9 0 1.4.1.8.1 1.3.7 1.3 1.5s-.4 1.4-1.2 1.5c-.5.1-.9.1-1.4.1h-24.9v3.7h5.7c.5 0 1 0 1.5.1.8.1 1.3.7 1.3 1.5s-.4 1.4-1.2 1.6c-.8.1-1.6.1-2.5.1h-4.8v3.6c.3 0 .6.1.8.1h12.5c.6 0 .9-.2 1.2-.7 1.2-2.3 3.6-3.3 6-2.5 2.3.7 3.8 2.9 3.5 5.3-.2 2.5-2.1 4.3-4.7 4.5-2.1.2-3.7-.8-4.8-2.6-.2-.3-.6-.7-.9-.7h-13.7v2.7c0 .9-.1 1.8-.2 2.7-.2 1-1 1.6-1.8 1.5-.9-.1-1.4-.8-1.4-1.9.1-13 .1-26 .2-39 0-3.6-2.2-5.8-5.8-5.8h-37c-.7 0-1.4.1-2 .2-1 .1-1.6-.4-1.8-1.3-.2-.9.4-1.7 1.4-1.8 1.4-.2 2.9-.2 4.3-.3h1.1zM54 56.7c1 0 1.8-.9 1.8-1.9 0-1-.9-1.8-1.8-1.7-.9 0-1.8.9-1.8 1.8-.1.9.8 1.8 1.8 1.8zm44.9 1.7c0-1-.9-1.9-1.8-1.8-1 0-1.8.8-1.8 1.8s.7 1.8 1.7 1.8 1.9-.8 1.9-1.8zm34.5 19c1 0 1.9-.8 1.9-1.8 0-.9-.8-1.8-1.8-1.8s-1.9.9-1.9 1.8c0 1 .8 1.8 1.8 1.8zm-1.6 41.4c0-1-.8-1.8-1.8-1.8s-1.9.8-1.9 1.8.9 1.8 1.9 1.8c1 0 1.8-.8 1.8-1.8z" fill="#ffffff" data-color="1"/>
        <path d="M95.5 132.6h-3.7v5.8c0 .5 0 .9-.1 1.4-.1.9-.8 1.3-1.6 1.3-.9 0-1.5-.6-1.5-1.5v-7.1h-3.7v24.9c0 .4 0 .9-.1 1.3-.1.9-.7 1.3-1.6 1.3-.8 0-1.4-.5-1.5-1.4-.1-.4-.1-.9-.1-1.3v-24.9h-3.7v6.7c0 1.1-.7 1.8-1.6 1.8-.9 0-1.6-.7-1.6-1.8-.1-1.8 0-3.6 0-5.4v-1.4h-3.6c0 .3-.1.6-.1.9v12.4c0 .6.1.9.7 1.3 2.2 1.1 3.2 3.5 2.6 5.7-.6 2.2-2.6 3.8-4.9 3.8-2.2 0-4.3-1.5-4.9-3.7-.6-2.3.4-4.6 2.5-5.9.3-.2.7-.7.7-1v-13c0-.1 0-.3-.1-.6-1.3 0-2.7.1-4.1 0-4.3-.2-8-3.8-8-8.9v-2.9c-2 0-3.9-.1-5.8 0-.6 0-1.2.6-1.7 1l-9.9 9.9c-.4.4-.5.8-.3 1.3.7 2.3-.2 4.7-2.2 5.9-2 1.2-4.5.8-6.1-.8-1.6-1.7-2-4.1-.8-6.2 1.2-2 3.6-3 5.9-2.2.6.2 1 0 1.4-.4 3.1-3.2 6.3-6.3 9.4-9.5 1.7-1.8 3.7-2.6 6.2-2.5 1.3.1 2.6 0 4 0v-3.7h-5.7c-.5 0-.9 0-1.4-.1-.9-.1-1.4-.7-1.4-1.6 0-.9.6-1.5 1.5-1.5h7v-3.7H30.7c-.5 0-.9 0-1.4-.1-.8-.2-1.2-.7-1.2-1.5s.4-1.4 1.3-1.5c.5-.1.9-.1 1.4-.1h24.9v-3.6c-.4 0-.9-.1-1.3-.1H49c-1.1 0-1.8-.7-1.8-1.6 0-.9.7-1.6 1.8-1.6 1.8-.1 3.6 0 5.4 0h1.4v-3.6c-.3 0-.6-.1-.9-.1H42.5c-.6 0-.9.1-1.3.7-1.1 2.2-3.5 3.2-5.7 2.6-2.2-.6-3.8-2.6-3.8-4.9 0-2.2 1.5-4.3 3.7-4.9 2.3-.6 4.6.4 5.9 2.5.2.3.7.7 1 .7h13c.1 0 .3 0 .6-.1v-3.2c0-.8.1-1.5.3-2.2.2-.9 1-1.5 1.8-1.3 1 .2 1.4.8 1.4 1.8-.1 12.9-.1 25.9-.2 38.8 0 3.9 2.1 6.1 6.1 6.1h36.4c.8 0 1.5-.1 2.3-.2 1.1-.1 1.7.5 1.9 1.4.1.9-.4 1.7-1.4 1.8-1.5.2-3.1.2-4.6.3h-.7c0 1.9-.1 3.8.1 5.7 0 .6.6 1.3 1.1 1.8l9.9 9.9c.5.5.9.4 1.4.2 2.7-.8 5.5.8 6.3 3.5.8 2.8-.9 5.5-3.6 6.3-2.7.7-5.5-.9-6.1-3.7-.2-.8-.1-1.8.1-2.6.2-.7 0-1.1-.4-1.6-3.1-3-6.1-6.1-9.2-9.1-2-1.9-2.9-4-2.7-6.7-.5-1-.6-2.2-.6-3.5zm19 22.5c0-.9-.8-1.8-1.8-1.8s-1.9.8-1.9 1.8.8 1.8 1.7 1.8c1.1.1 2-.8 2-1.8zM36.6 89.4c-.9 0-1.8.8-1.8 1.8s.8 1.8 1.8 1.8 1.8-.8 1.8-1.7c.1-1.1-.8-1.9-1.8-1.9zm-3.4 43.2c-1 0-1.8.8-1.8 1.8s.9 1.9 1.8 1.9 1.8-.9 1.8-1.8c0-1.1-.8-1.9-1.8-1.9zm36.3 17.2c-1 0-1.9.8-1.8 1.8 0 .9.8 1.8 1.8 1.8s1.8-.8 1.8-1.7c0-1-.8-1.8-1.8-1.9z" fill="#ffffff" data-color="1"/>
        <path d="M67.8 105.3c-3.2-4.3-1.5-10 4.2-12 .4-6.9 5.1-9.1 11.3-5.3 2.5-2.1 5.3-2.6 8.3-.9 2.4 1.3 3.3 3.5 2.9 6.1 1 .6 2.1 1.1 3 1.7 3.4 2.5 3.9 7 1.3 10.3-.4.5-.5.8 0 1.4 2.7 3.3 2.1 7.8-1.4 10.4-.6.4-.9.8-1 1.5-.6 3.2-4.2 5.7-7.6 5.4-2.3-.2-2.8-.5-5.5-2.5-1.4 1.5-3.2 2.3-5.3 2.5-3.8.4-7.3-2.3-7.9-6.1 0-.3-.2-.7-.4-.9-4.1-3.8-4.6-6.9-1.9-11.6zm3.2 8.4c.4-.4.7-.9 1.1-1.2.7-.6 1.4-.6 2.1-.1.7.5.8 1.3.4 2-.1.2-.3.5-.5.7-1.1 1.5-.9 3.3.5 4.4 1.5 1.2 3.2 1.4 5 .7 1.6-.7 2.3-2 2.3-3.8v-1.2c.2-2.4-.5-4.1-2.9-5-.9-.4-1.2-1.4-.8-2.1.5-.9 1.2-1.1 2.1-.8.5.2 1 .4 1.6.6v-8.6c0-1.1.7-1.8 1.6-1.8.9 0 1.6.7 1.6 1.8v1.8c.4-.2.6-.3.8-.3 1.1-.3 2.2-.6 3.3-.7 1-.1 1.6.6 1.7 1.5 0 .9-.4 1.5-1.3 1.7-.3.1-.6.1-.9.1-2.3.3-3.6 1.7-3.6 4.1v9.2c0 1.8.6 3.1 2.3 3.8 1.8.7 3.5.6 5-.7 1.6-1.3 1.6-3.5 0-4.9-.5-.4-1.1-.7-1.7-1-.9-.5-1.2-1.3-.8-2.2.4-.8 1.3-1.2 2.2-.7 1 .5 2 1.2 2.9 1.8.5.3.8.9 1.2 1.3 2-2.1 1.7-4.7-.7-6.4-1.7-1.2-1.7-2.2 0-3.5.6-.4 1.2-1 1.5-1.6 1.4-2.6-.4-5.7-3.6-6.1-1.1-.1-2.3.1-3.4.3-1 .2-1.8-.2-2.1-1-.3-.9.1-1.7 1.1-2.1.5-.2 1-.4 1.5-.4 1.1-.1 1.3-.7 1-1.5-.2-.6-.5-1.2-1-1.6-2.2-1.6-4.8-.6-5.4 2.1-.2.9-.7 1.4-1.6 1.4-.9 0-1.4-.5-1.6-1.4-.6-2.6-3.1-3.6-5.3-2.2-1.2.8-1.5 2.1-.7 3.3 1 1.8.5 2.6-1.5 3-1.1.2-2.3.6-3.1 1.2-1.9 1.4-2.1 3.8-.7 5.5.4-.2.9-.5 1.3-.6.5-.2.9-.3 1.4-.4 1-.2 1.7.2 2 1 .3.9-.1 1.6-1.1 2-.6.2-1.2.4-1.7.7-3.4 1.6-4.1 5.4-1.5 7.9z" fill="#ffffff" data-color="1"/>
    </g>
</svg>
