<?xml version="1.0" encoding="UTF-8"?>
<svg data-bbox="156.699 44.18 94.611 110.542" viewBox="0 0 408 210" xmlns="http://www.w3.org/2000/svg" data-type="color">
    <g>
        <path d="M204.02 132.23c-3.86 0-7.72-.02-11.57.01-1.09.01-1.81-.19-1.84-1.52-.12-7-3.37-12.45-8.11-17.37-9.4-9.76-11.01-24.55-3.84-35.99 6.35-10.14 15.75-15.13 27.66-14.18 12.07.97 20.8 7.4 25.28 18.7 4.41 11.12 2.37 21.49-5.27 30.71-2.04 2.46-4.53 4.72-5.91 7.52-1.53 3.12-2.19 6.73-2.91 10.19-.3 1.44-.65 1.99-2.13 1.96-3.79-.08-7.58-.03-11.36-.03zm-.1-3.32c2.84 0 5.68.08 8.51-.06.63-.03 1.7-.73 1.78-1.25 1.05-6.8 4.64-12.06 9.27-16.97 11.63-12.35 8.25-32.71-6.6-40.92-11.49-6.35-25.7-3.42-33.77 6.96-7.98 10.27-7.26 24.95 1.91 34.47 4.48 4.65 7.79 9.8 8.69 16.29.17 1.25.81 1.51 1.92 1.49 2.76-.05 5.52-.01 8.29-.01z" fill="#ffffff" data-color="1"/>
        <path d="M203.98 139.69h-10.91c-1.18 0-2.32-.21-2.29-1.68.03-1.45 1.17-1.65 2.35-1.65h21.81c1.18 0 2.31.24 2.29 1.7-.02 1.49-1.19 1.63-2.35 1.63h-10.9z" fill="#ffffff" data-color="1"/>
        <path d="M222.22 64.57c-1.38-.77-2.56-1.43-4.05-2.27.94-1.65 1.8-3.2 2.69-4.73 1.23-2.14 2.34-4.37 3.81-6.33.5-.67 2.2-1.13 2.88-.77.67.36 1.33 2.14 1 2.8-1.93 3.8-4.14 7.46-6.33 11.3z" fill="#ffffff" data-color="1"/>
        <path d="M189.88 62.29c-1.43.8-2.61 1.46-4.07 2.27-2.19-3.85-4.39-7.5-6.31-11.31-.33-.65.36-2.46 1.04-2.79.69-.34 2.43.17 2.87.86 2.26 3.47 4.24 7.11 6.47 10.97z" fill="#ffffff" data-color="1"/>
        <path d="M203.83 147.18c-2.84 0-5.69.11-8.51-.07-.77-.05-2-.88-2.12-1.53-.26-1.41.97-1.73 2.17-1.73h17.25c1.19 0 2.33.24 2.31 1.69-.02 1.45-1.19 1.64-2.36 1.64-2.92-.01-5.83-.01-8.74 0z" fill="#ffffff" data-color="1"/>
        <path d="M201.79 59.26c0-4.57-.1-8.9.1-13.23.03-.7 1.37-1.85 2.11-1.85.75 0 2.12 1.12 2.16 1.82.22 4.05.17 8.13.11 12.19 0 .36-.64.97-1.04 1.02-1.04.15-2.12.05-3.44.05z" fill="#ffffff" data-color="1"/>
        <path d="M233.64 77.04c-.87-1.4-1.55-2.5-2.41-3.9 1.45-.87 2.79-1.69 4.13-2.48 2.07-1.22 4.15-2.43 6.24-3.62 1.33-.76 2.6-.66 3.38.75.71 1.28.29 2.45-.95 3.19-3.38 2-6.78 3.95-10.39 6.06z" fill="#ffffff" data-color="1"/>
        <path d="M164.72 66.38c.85.33 1.35.46 1.78.71 3.02 1.73 6 3.52 9.03 5.22 1.14.64 1.2 1.41.4 2.24-.76.79-.71 2.94-2.71 1.8-3.08-1.76-6.2-3.46-9.17-5.4-.7-.46-1.25-1.82-1.14-2.67.09-.73 1.22-1.32 1.81-1.9z" fill="#ffffff" data-color="1"/>
        <path d="M243.93 89.18c1.67 0 3.34-.05 5.01.01 1.43.05 2.36.8 2.37 2.3.01 1.51-.94 2.28-2.36 2.3-3.34.06-6.68.08-10.02.02-2.4-.05-1.18-2.04-1.5-3.16-.32-1.15.41-1.52 1.49-1.5 1.67.04 3.34.01 5.01.01v.02z" fill="#ffffff" data-color="1"/>
        <path d="M170.51 89.17c0 1.29.17 2.33-.06 3.27-.14.55-.9 1.31-1.41 1.33-3.26.12-6.53.09-9.79.04-1.49-.02-2.59-.74-2.55-2.36.04-1.59 1.14-2.27 2.64-2.27 3.61-.02 7.24-.01 11.17-.01z" fill="#ffffff" data-color="1"/>
        <path d="M173.32 106.57c.61 1.11 1.25 1.93 1.51 2.87.15.55-.1 1.6-.52 1.87-2.64 1.66-5.36 3.19-8.09 4.71-1.26.7-2.65.51-3.11-.84-.29-.84.07-2.51.72-2.95 2.98-2.01 6.17-3.72 9.49-5.66z" fill="#ffffff" data-color="1"/>
        <path d="M234.72 106.56c3.34 1.97 6.57 3.74 9.62 5.78.59.4.94 2.24.54 2.77-.51.68-2.15 1.24-2.85.91-2.93-1.4-5.72-3.13-8.49-4.83-.35-.22-.59-1.13-.44-1.56.35-.99.98-1.89 1.62-3.07z" fill="#ffffff" data-color="1"/>
        <path d="M204.05 154.67c-2.03 0-4.07.16-6.07-.08-.74-.09-1.37-1.09-2.04-1.68.66-.52 1.31-1.48 1.99-1.5 4.05-.14 8.11-.15 12.16.01.7.03 1.36 1.08 2.04 1.66-.66.53-1.29 1.44-2 1.51-2.02.21-4.06.07-6.08.08z" fill="#ffffff" data-color="1"/>
        <path d="M211.11 71.87c-1.45 7.84-2.89 15.68-4.42 23.95 2.07-.55 3.7-.99 5.94-1.58-4.34 10.6-8.45 20.66-12.57 30.72-.18-.04-.36-.09-.54-.13 1.44-7.86 2.87-15.72 4.38-23.98-2.07.53-3.7.94-5.91 1.51 4.32-10.55 8.44-20.6 12.56-30.65.19.05.38.11.56.16z" fill="#ffffff" data-color="1"/>
    </g>
</svg>
